<?xml version="1.0" encoding="UTF-8"?>
<svg width="40px" height="65px" viewBox="0 0 40 65" version="1.1" xmlns="http://www.w3.org/2000/svg" xmlns:xlink="http://www.w3.org/1999/xlink">
    <!-- Generator: Sketch 63.1 (92452) - https://sketch.com -->
    <title>character spacing</title>
    <desc>Created with Sketch.</desc>
    <defs>
        <linearGradient x1="-15.7430632%" y1="-15.0728608%" x2="111.634006%" y2="115.845884%" id="linearGradient-1">
            <stop stop-color="#C4D1D6" offset="0%"></stop>
            <stop stop-color="#9BABB2" offset="100%"></stop>
        </linearGradient>
        <linearGradient x1="50%" y1="0%" x2="50%" y2="100%" id="linearGradient-2">
            <stop stop-color="#919EA4" offset="0%"></stop>
            <stop stop-color="#BCCDD5" offset="100%"></stop>
        </linearGradient>
        <path d="M0,7.5115537 L0,14.3156638 C-1.66928081e-15,15.190006 0.471598274,15.9963671 1.23365352,16.4250232 L9.37225927,21.0029889 C9.56277309,21.1101529 9.68067265,21.3117432 9.68067265,21.5303287 L9.68067265,53.0835077 C9.68067265,53.9336229 10.1267068,54.7214042 10.8556746,55.1587848 L17.4628227,59.1230737 C18.2545461,59.5981077 19.247573,59.5812816 20.0227484,59.0796976 L27.9366092,53.9589641 C28.6258512,53.512984 29.042018,52.7480094 29.042018,51.9270631 L29.042018,31.1444526 C29.042018,30.9291009 29.1564838,30.7299803 29.3425794,30.6216071 L38.125487,25.506855 C38.8698692,25.0733618 39.3277327,24.2768795 39.3277327,23.415473 L39.3277327,17.7218677 C39.3277327,16.8634255 38.8729891,16.0692204 38.132655,15.6346765 L12.6567899,0.681451305 C11.9348796,0.257721328 11.0452614,0.237124959 10.3045147,0.62699162 L1.29298347,5.36990279 C0.497832838,5.78840313 -9.53170924e-16,6.61299537 0,7.5115537 Z" id="path-3"></path>
        <linearGradient x1="125.268007%" y1="115.664559%" x2="-29.8158008%" y2="-25.006292%" id="linearGradient-5">
            <stop stop-color="#AEC9D7" offset="0%"></stop>
            <stop stop-color="#FFFFFF" offset="100%"></stop>
        </linearGradient>
        <path d="M39.9327747,10.0454576 L39.9327747,19.7261303 L29.0969959,26.0376922 C28.538524,26.3629877 27.849208,26.3667891 27.2871823,26.0476728 L20.039074,21.9322215 C19.7484922,21.7672301 19.3791773,21.8690413 19.2141859,22.159623 C19.1624743,22.2506973 19.1352887,22.3536351 19.1352887,22.4583663 L19.1352887,54.7943069 L19.1352887,54.7943069 L9.94229653,49.5009938 L9.94229653,16.8815149 C9.94229653,16.419652 9.67938875,15.9980683 9.26463404,15.7948545 L8.59816454e-15,11.2555417 L8.59816454e-15,11.2555417 L0.252940055,4.29908227e-14 L27.3665186,15.2721429 C27.8850834,15.5642326 28.513897,15.5835432 29.0494077,15.3238238" id="path-6"></path>
        <linearGradient x1="-77.7608137%" y1="27.082301%" x2="175.309121%" y2="123.290596%" id="linearGradient-8">
            <stop stop-color="#FFFFFF" offset="0%"></stop>
            <stop stop-color="#D3DFE5" offset="100%"></stop>
        </linearGradient>
    </defs>
    <g id="shifter" stroke="none" stroke-width="1" fill="none" fill-rule="evenodd">
        <g id="Artboard" transform="translate(-196.000000, -459.000000)">
            <g id="character-spacing" transform="translate(186.000000, 459.000000)">
                <g id="logo-copy">
                    <rect id="container" x="0" y="0" width="60" height="60"></rect>
                    <g id="Group" transform="translate(10.200000, 0.000000)">
                        <mask id="mask-4" fill="white">
                            <use xlink:href="#path-3"></use>
                        </mask>
                        <g id="Mask">
                            <use fill="url(#linearGradient-1)" xlink:href="#path-3"></use>
                            <use fill-opacity="0.5" fill="url(#linearGradient-2)" xlink:href="#path-3"></use>
                        </g>
                        <g id="Group-2" mask="url(#mask-4)">
                            <g transform="translate(-0.605042, 5.080593)">
                                <mask id="mask-7" fill="white">
                                    <use xlink:href="#path-6"></use>
                                </mask>
                                <use id="Mask" stroke="none" fill="url(#linearGradient-5)" fill-rule="evenodd" xlink:href="#path-6"></use>
                                <polygon id="Rectangle" stroke="none" fill-opacity="0.2" fill="#ADBCC3" fill-rule="evenodd" mask="url(#mask-7)" points="27.8319339 15.490836 40.5378167 10.0454576 40.5378167 19.7261303 29.3086553 26.2240343 29.042018 26.3815928 27.8319339 26.3815928"></polygon>
                            </g>
                        </g>
                        <path d="M8.47058857,-4.23529429 L40.5378167,15.126051 L28.3864775,21.0912539 C27.6618038,21.4470028 26.8074613,21.417998 26.1085837,21.0139196 L-6.05042041,2.42016816 L-6.05042041,2.42016816 L8.47058857,-4.23529429 Z" id="Path" fill="url(#linearGradient-8)" mask="url(#mask-4)"></path>
                    </g>
                </g>
                <path d="M34,49.1697093 L34,63.1729646 C34,63.7252493 33.5522847,64.1729646 33,64.1729646 C32.8089732,64.1729646 32.6219431,64.1182498 32.4610357,64.0152932 L12.9220715,51.5132803 C12.3475692,51.1456848 12,50.5106635 12,49.828623 L12,35.8269137 C12,35.2746289 12.4477153,34.8269137 13,34.8269137 C13.1910077,34.8269137 13.3780199,34.8816175 13.538917,34.9845548 L33.0778339,47.4849915 C33.6523904,47.8525762 34,48.4876289 34,49.1697093 Z" id="Path" fill-opacity="0.399721372" fill="#009FE9"></path>
            </g>
        </g>
    </g>
</svg>