<?xml version="1.0" encoding="UTF-8"?>
<svg width="425px" height="75px" viewBox="0 0 425 75" version="1.1" xmlns="http://www.w3.org/2000/svg" xmlns:xlink="http://www.w3.org/1999/xlink">
    <!-- Generator: Sketch 63.1 (92452) - https://sketch.com -->
    <title>perfecttype</title>
    <desc>Created with Sketch.</desc>
    <g id="shifter" stroke="none" stroke-width="1" fill="none" fill-rule="evenodd">
        <g id="Desktop-HD-Copy" transform="translate(-510.000000, -231.000000)" fill="#FFFFFF" fill-rule="nonzero">
            <path d="M519.76,305.8 L519.76,283.24 C523.12,287.506667 527.68,289.64 533.44,289.64 C539.253333,289.64 544.226667,287.52 548.36,283.28 C552.493333,279.04 554.56,273.853333 554.56,267.72 C554.56,261.8 552.48,256.68 548.32,252.36 C544.16,248.04 539.2,245.88 533.44,245.88 C527.733333,245.88 523.173333,247.96 519.76,252.12 L519.76,252.12 L519.76,246.6 L510.56,246.6 L510.56,305.8 L519.76,305.8 Z M532.56,281.32 C528.88,281.32 525.72,279.973333 523.08,277.28 C520.44,274.586667 519.12,271.4 519.12,267.72 C519.12,264.093333 520.44,260.946667 523.08,258.28 C525.72,255.613333 528.88,254.28 532.56,254.28 C536.293333,254.28 539.453333,255.6 542.04,258.24 C544.626667,260.88 545.92,264.04 545.92,267.72 C545.92,271.453333 544.626667,274.653333 542.04,277.32 C539.453333,279.986667 536.293333,281.32 532.56,281.32 Z M577.52,289.64 C581.626667,289.64 585.546667,288.613333 589.28,286.56 C593.013333,284.506667 595.733333,281.773333 597.44,278.36 L597.44,278.36 L589.28,276.2 C586.346667,279.666667 582.426667,281.4 577.52,281.4 C574.32,281.4 571.546667,280.48 569.2,278.64 C566.853333,276.8 565.413333,274.306667 564.88,271.16 L564.88,271.16 L598.96,271.16 C599.44,268.866667 599.413333,266.466667 598.88,263.96 C597.973333,258.786667 595.506667,254.48 591.48,251.04 C587.453333,247.6 582.8,245.88 577.52,245.88 C571.546667,245.88 566.426667,248 562.16,252.24 C557.893333,256.48 555.76,261.64 555.76,267.72 C555.76,273.746667 557.866667,278.906667 562.08,283.2 C566.293333,287.493333 571.44,289.64 577.52,289.64 Z M589.92,264.04 L564.88,264.04 C565.413333,261.266667 566.826667,258.906667 569.12,256.96 C571.413333,255.013333 574.186667,254.04 577.44,254.04 C580.693333,254.04 583.453333,255 585.72,256.92 C587.986667,258.84 589.386667,261.213333 589.92,264.04 L589.92,264.04 Z M610.8,289 L610.8,267.48 C610.8,263 612.44,259.666667 615.72,257.48 C619,255.293333 622.8,254.866667 627.12,256.2 L627.12,256.2 L627.12,246.44 C623.12,245.8 619.733333,246.16 616.96,247.52 C614.186667,248.88 612.133333,250.893333 610.8,253.56 L610.8,253.56 L610.8,246.6 L601.6,246.6 L601.6,289 L610.8,289 Z M644.64,289 L644.56,254.52 L657.68,254.52 L657.68,246.6 L644.56,246.6 L644.56,245.24 C644.56,242.52 645.693333,240.586667 647.96,239.44 C650.226667,238.293333 653.573333,238.306667 658,239.48 L658,239.48 L658.08,232.44 C651.253333,230.733333 645.76,231.16 641.6,233.72 C637.44,236.28 635.36,240.093333 635.36,245.16 L635.36,245.16 L635.36,246.6 L627.44,246.6 L627.44,254.52 L635.36,254.52 L635.52,289 L644.64,289 Z M679.04,289.64 C683.146667,289.64 687.066667,288.613333 690.8,286.56 C694.533333,284.506667 697.253333,281.773333 698.96,278.36 L698.96,278.36 L690.8,276.2 C687.866667,279.666667 683.946667,281.4 679.04,281.4 C675.84,281.4 673.066667,280.48 670.72,278.64 C668.373333,276.8 666.933333,274.306667 666.4,271.16 L666.4,271.16 L700.48,271.16 C700.96,268.866667 700.933333,266.466667 700.4,263.96 C699.493333,258.786667 697.026667,254.48 693,251.04 C688.973333,247.6 684.32,245.88 679.04,245.88 C673.066667,245.88 667.946667,248 663.68,252.24 C659.413333,256.48 657.28,261.64 657.28,267.72 C657.28,273.746667 659.386667,278.906667 663.6,283.2 C667.813333,287.493333 672.96,289.64 679.04,289.64 Z M691.44,264.04 L666.4,264.04 C666.933333,261.266667 668.346667,258.906667 670.64,256.96 C672.933333,255.013333 675.706667,254.04 678.96,254.04 C682.213333,254.04 684.973333,255 687.24,256.92 C689.506667,258.84 690.906667,261.213333 691.44,264.04 L691.44,264.04 Z M723.68,289.64 C728.213333,289.64 732.28,288.36 735.88,285.8 C739.48,283.24 742.08,279.933333 743.68,275.88 L743.68,275.88 L735.2,273.64 C734.186667,275.933333 732.666667,277.786667 730.64,279.2 C728.613333,280.613333 726.293333,281.32 723.68,281.32 C720,281.32 716.893333,279.986667 714.36,277.32 C711.826667,274.653333 710.56,271.453333 710.56,267.72 C710.56,264.04 711.826667,260.853333 714.36,258.16 C716.893333,255.466667 720,254.12 723.68,254.12 C726.24,254.12 728.546667,254.84 730.6,256.28 C732.653333,257.72 734.186667,259.586667 735.2,261.88 L735.2,261.88 L743.68,259.64 C742.08,255.533333 739.466667,252.213333 735.84,249.68 C732.213333,247.146667 728.16,245.88 723.68,245.88 C717.706667,245.88 712.586667,248 708.32,252.24 C704.053333,256.48 701.92,261.64 701.92,267.72 C701.92,273.693333 704.026667,278.84 708.24,283.16 C712.453333,287.48 717.6,289.64 723.68,289.64 Z M757.52,287.88 C761.733333,290.226667 767.12,290.493333 773.68,288.68 L773.68,288.68 L773.68,279.8 C769.146667,281.186667 765.786667,281.426667 763.6,280.52 C761.413333,279.613333 760.32,277.853333 760.32,275.24 L760.32,275.24 L760.4,254.52 L773.36,254.52 L773.36,246.6 L760.4,246.6 L760.4,236.12 L751.36,236.12 L751.28,246.6 L743.28,246.6 L743.28,254.52 L751.28,254.52 L751.2,275.32 C751.2,281.346667 753.306667,285.533333 757.52,287.88 Z M788.96,287.88 C792.373333,290.066667 797.226667,290.386667 803.52,288.84 L803.52,288.84 L803.52,283.4 C794.08,286.12 789.36,283.64 789.36,275.96 L789.36,275.96 L789.44,251.48 L803.6,251.48 L803.6,246.6 L789.44,246.6 L789.44,234.52 L783.84,234.52 L783.84,246.6 L774.64,246.6 L774.64,251.48 L783.84,251.48 L783.84,276.04 C783.84,281.746667 785.546667,285.693333 788.96,287.88 Z M820.08,305.8 L844,246.6 L838.24,246.6 L824.08,282.84 L809.12,246.6 L803.36,246.6 L821.36,288.84 L814.32,305.8 L820.08,305.8 Z M851.84,305.8 L851.84,280.2 C853.546667,283.08 855.866667,285.373333 858.8,287.08 C861.733333,288.786667 864.986667,289.64 868.56,289.64 C874.48,289.64 879.52,287.52 883.68,283.28 C887.84,279.04 889.92,273.853333 889.92,267.72 C889.92,261.746667 887.84,256.613333 883.68,252.32 C879.52,248.026667 874.48,245.88 868.56,245.88 C864.933333,245.88 861.666667,246.733333 858.76,248.44 C855.853333,250.146667 853.546667,252.413333 851.84,255.24 L851.84,255.24 L851.84,246.6 L846.24,246.6 L846.24,305.8 L851.84,305.8 Z M868.08,284.52 C863.493333,284.52 859.6,282.893333 856.4,279.64 C853.2,276.333333 851.6,272.36 851.6,267.72 C851.6,263.133333 853.213333,259.2 856.44,255.92 C859.666667,252.64 863.546667,251 868.08,251 C872.666667,251 876.546667,252.626667 879.72,255.88 C882.893333,259.133333 884.48,263.08 884.48,267.72 C884.48,272.413333 882.893333,276.386667 879.72,279.64 C876.546667,282.893333 872.666667,284.52 868.08,284.52 Z M913.44,289.64 C917.6,289.64 921.48,288.573333 925.08,286.44 C928.68,284.306667 931.333333,281.48 933.04,277.96 L933.04,277.96 L927.84,276.92 C926.293333,279.213333 924.24,281.053333 921.68,282.44 C919.12,283.826667 916.373333,284.52 913.44,284.52 C909.173333,284.52 905.506667,283.146667 902.44,280.4 C899.373333,277.653333 897.68,274.093333 897.36,269.72 L897.36,269.72 L934.8,269.72 C935.013333,268.493333 934.986667,266.92 934.72,265 C934.026667,259.613333 931.68,255.08 927.68,251.4 C923.68,247.72 918.933333,245.88 913.44,245.88 C907.413333,245.88 902.28,248 898.04,252.24 C893.8,256.48 891.68,261.64 891.68,267.72 C891.68,273.746667 893.786667,278.906667 898,283.2 C902.213333,287.493333 907.36,289.64 913.44,289.64 Z M929.2,265.24 L897.36,265.24 C897.786667,261.186667 899.493333,257.786667 902.48,255.04 C905.466667,252.293333 909.093333,250.92 913.36,250.92 C917.573333,250.92 921.16,252.293333 924.12,255.04 C927.08,257.786667 928.773333,261.186667 929.2,265.24 L929.2,265.24 Z" id="perfecttype"></path>
        </g>
    </g>
</svg>