<?xml version="1.0" encoding="UTF-8"?>
<svg width="116px" height="30px" viewBox="0 0 116 30" version="1.1" xmlns="http://www.w3.org/2000/svg" xmlns:xlink="http://www.w3.org/1999/xlink">
    <!-- Generator: Sketch 63.1 (92452) - https://sketch.com -->
    <title>Group</title>
    <desc>Created with Sketch.</desc>
    <g id="shifter" stroke="none" stroke-width="1" fill="none" fill-rule="evenodd">
        <g id="perfect-type" transform="translate(-672.000000, -212.000000)">
            <g id="Group" transform="translate(730.500000, 224.500000) rotate(-3.000000) translate(-730.500000, -224.500000) translate(673.000000, 210.000000)">
                <text id="coming-soon…" font-family="Caveat-Bold, Caveat" font-size="19.2" font-weight="bold" fill="#FFFFFF">
                    <tspan x="24" y="19.2">coming soon…</tspan>
                </text>
                <g id="figma-1" fill-rule="nonzero">
                    <path d="M4.73905251,28.434315 C7.35500949,28.434315 9.47810502,26.3112195 9.47810502,23.6952625 L9.47810502,18.95621 L4.73905251,18.95621 C2.12309552,18.95621 0,21.0793056 0,23.6952625 C0,26.3112195 2.12309552,28.434315 4.73905251,28.434315 Z" id="path0_fill" fill="#0ACF83"></path>
                    <path d="M0,14.2171575 C0,11.6012005 2.12309552,9.47810502 4.73905251,9.47810502 L9.47810502,9.47810502 L9.47810502,18.95621 L4.73905251,18.95621 C2.12309552,18.95621 0,16.8331145 0,14.2171575 Z" id="path1_fill" fill="#A259FF"></path>
                    <path d="M0,4.73905251 C0,2.12309552 2.12309552,0 4.73905251,0 L9.47810502,0 L9.47810502,9.47810502 L4.73905251,9.47810502 C2.12309552,9.47810502 0,7.35500949 0,4.73905251 Z" id="path1_fill_1_" fill="#F24E1E"></path>
                    <path d="M9.47810502,0 L14.2171575,0 C16.8331145,0 18.95621,2.12309552 18.95621,4.73905251 C18.95621,7.35500949 16.8331145,9.47810502 14.2171575,9.47810502 L9.47810502,9.47810502 L9.47810502,0 Z" id="path2_fill" fill="#FF7262"></path>
                    <path d="M18.95621,14.2171575 C18.95621,16.8331145 16.8331145,18.95621 14.2171575,18.95621 C11.6012005,18.95621 9.47810502,16.8331145 9.47810502,14.2171575 C9.47810502,11.6012005 11.6012005,9.47810502 14.2171575,9.47810502 C16.8331145,9.47810502 18.95621,11.6012005 18.95621,14.2171575 Z" id="path3_fill" fill="#1ABCFE"></path>
                </g>
            </g>
        </g>
    </g>
</svg>