<?xml version="1.0" encoding="UTF-8"?>
<svg width="24px" height="24px" viewBox="0 0 24 24" version="1.1" xmlns="http://www.w3.org/2000/svg" xmlns:xlink="http://www.w3.org/1999/xlink">
    <!-- Generator: Sketch 63.1 (92452) - https://sketch.com -->
    <title>icons8-github</title>
    <desc>Created with Sketch.</desc>
    <g id="shifter" stroke="none" stroke-width="1" fill="none" fill-rule="evenodd">
        <g id="Desktop-HD-Copy" transform="translate(-785.000000, -532.000000)" fill="#FFFFFF" fill-rule="nonzero">
            <g id="Button-Copy" transform="translate(753.000000, 512.000000)">
                <g id="Group-3" transform="translate(32.000000, 20.000000)">
                    <g id="icons8-github">
                        <path d="M10.68,0.12 C5.16,0.72 0.72,5.16 0.12,10.56 C-0.48,16.2 2.76,21.24 7.68,23.16 C8.04,23.28 8.4,23.04 8.4,22.56 L8.4,20.64 C8.4,20.64 7.92,20.76 7.32,20.76 C5.64,20.76 4.92,19.32 4.8,18.48 C4.68,18 4.44,17.64 4.08,17.28 C3.72,17.16 3.6,17.16 3.6,17.04 C3.6,16.8 3.96,16.8 4.08,16.8 C4.8,16.8 5.4,17.64 5.64,18 C6.24,18.96 6.96,19.2 7.32,19.2 C7.8,19.2 8.16,19.08 8.4,18.96 C8.52,18.12 8.88,17.28 9.6,16.8 C6.84,16.2 4.8,14.64 4.8,12 C4.8,10.68 5.4,9.36 6.24,8.4 C6.12,8.16 6,7.56 6,6.72 C6,6.24 6,5.64 6.24,5.16 C6.24,4.92 6.48,4.8 6.6,4.8 C6.6,4.8 6.72,4.8 6.72,4.8 C7.32,4.92 8.52,5.28 9.6,6.36 C10.32,6.12 11.16,6 12,6 C12.84,6 13.68,6.12 14.4,6.36 C15.48,5.28 16.8,4.92 17.4,4.8 C17.4,4.8 17.52,4.8 17.52,4.8 C17.76,4.8 17.88,4.92 18,5.16 C18,5.64 18,6.24 18,6.72 C18,7.68 17.88,8.16 17.76,8.4 C18.6,9.36 19.2,10.56 19.2,12 C19.2,14.64 17.16,16.2 14.4,16.8 C15.12,17.4 15.6,18.48 15.6,19.56 L15.6,22.68 C15.6,23.04 15.96,23.4 16.44,23.28 C20.88,21.48 24,17.16 24,12.12 C24,4.92 17.88,-0.72 10.68,0.12 Z" id="Path"></path>
                    </g>
                </g>
            </g>
        </g>
    </g>
</svg>